<?xml version="1.0" encoding="iso-8859-1"?>
<!-- Generator: Adobe Illustrator 19.0.0, SVG Export Plug-In . SVG Version: 6.00 Build 0)  -->
<svg version="1.1" id="Capa_1" xmlns="http://www.w3.org/2000/svg" xmlns:xlink="http://www.w3.org/1999/xlink" x="0px" y="0px"
	 viewBox="0 0 512 512" style="enable-background:new 0 0 512 512;" xml:space="preserve">
<path style="fill:#A38DCE;" d="M72.001,324l62.085,170.734c1.15,3.162,4.154,5.266,7.518,5.266h236.547
	c3.484,0,6.567-2.255,7.623-5.574L440,324L72.001,324L72.001,324z M186.244,468.18c-8.414,2.699-17.423-1.935-20.122-10.349
	l-24.434-76.177c-2.699-8.414,1.935-17.423,10.349-20.122s17.423,1.934,20.122,10.349l24.434,76.177
	C199.292,456.472,194.659,465.482,186.244,468.18z M272.001,452c0,8.836-7.164,16-16,16c-8.836,0-16-7.164-16-16v-80
	c0-8.836,7.164-16,16-16c8.836,0,16,7.164,16,16V452z M370.313,381.654l-24.434,76.177c-2.699,8.414-11.708,13.048-20.122,10.349
	s-13.047-11.708-10.349-20.122l24.434-76.177c2.699-8.414,11.708-13.047,20.122-10.349S373.012,373.24,370.313,381.654z"/>
<path style="fill:#8C70C2;" d="M126.844,348h305.52L440,324H72l62.085,170.734c1.15,3.161,4.154,5.266,7.518,5.266h17.669
	l-47.466-130.532C108.013,359.032,115.74,348,126.844,348z"/>
<path style="fill:#D1C6E7;" d="M464.001,284h-416c-4.418,0-8,3.582-8,8v32c0,4.418,3.582,8,8,8h416c4.418,0,8-3.582,8-8v-32
	C472.001,287.581,468.419,284,464.001,284z"/>
<path id="SVGCleanerId_0" style="fill:#FDC572;" d="M503.75,203.325c-5.729-6.344-13.584-10.078-22.121-10.513
	c-8.443-0.42-16.708,2.514-22.979,8.131c-0.474,0.275-108.225,97.494-108.225,97.494c-3.234,2.919-3.496,8.066-0.576,11.299
	l32.169,35.625c2.92,3.234,8.064,3.498,11.299,0.576l105.64-95.393c7.779-5.723,12.509-14.495,13.001-24.144
	C512.394,217.864,509.479,209.669,503.75,203.325z"/>
<g>
	<path id="SVGCleanerId_0_1_" style="fill:#FDC572;" d="M503.75,203.325c-5.729-6.344-13.584-10.078-22.121-10.513
		c-8.443-0.42-16.708,2.514-22.979,8.131c-0.474,0.275-108.225,97.494-108.225,97.494c-3.234,2.919-3.496,8.066-0.576,11.299
		l32.169,35.625c2.92,3.234,8.064,3.498,11.299,0.576l105.64-95.393c7.779-5.723,12.509-14.495,13.001-24.144
		C512.394,217.864,509.479,209.669,503.75,203.325z"/>
</g>
<path style="fill:#FCB74F;" d="M503.75,203.325c-1.974-2.186-4.206-4.054-6.626-5.592c3.543,5.558,5.283,12.058,4.94,18.773
	c-0.492,9.649-5.222,18.421-13.001,24.144l-105.64,95.393c-2.381,2.151-5.795,2.57-8.597,1.354l7.191,7.964
	c2.92,3.234,8.064,3.498,11.299,0.576l105.64-95.393c7.779-5.723,12.509-14.495,13.001-24.144
	C512.394,217.864,509.479,209.669,503.75,203.325z"/>
<path style="fill:#EEA848;" d="M387.63,315.679c-3.132,0-6-2.035-7.053-4.977c-1.081-3.019-0.079-6.462,2.446-8.434
	c5.228-4.082,12.997,0.455,12.027,7.009C394.513,312.91,391.298,315.679,387.63,315.679z"/>
<path style="fill:#FDC572;" d="M164.204,303.967c-0.108-2.119-1.053-4.108-2.628-5.53c0,0-107.75-97.219-108.225-97.494
	c-6.27-5.617-14.529-8.555-22.979-8.13c-8.537,0.435-16.393,4.168-22.121,10.513c-5.729,6.344-8.644,14.539-8.208,23.075
	c0.492,9.649,5.222,18.421,13.001,24.144l105.64,95.393c3.235,2.921,8.378,2.659,11.299-0.576l32.169-35.625
	C163.574,308.161,164.312,306.086,164.204,303.967z"/>
<path style="fill:#FCB74F;" d="M128.561,336.06l-105.64-95.393c-7.779-5.723-12.509-14.495-13.001-24.144
	c-0.342-6.719,1.399-13.223,4.947-18.783c-2.416,1.537-4.644,3.403-6.616,5.586c-5.729,6.344-8.644,14.539-8.208,23.075
	c0.492,9.649,5.222,18.421,13.001,24.144l105.64,95.393c3.235,2.921,8.378,2.659,11.299-0.576l7.178-7.949
	C134.358,338.63,130.943,338.211,128.561,336.06z"/>
<path style="fill:#EEA848;" d="M124.37,315.679c-3.13,0-6.011-2.025-7.063-4.977c-1.014-2.846-0.18-6.145,2.09-8.147
	c2.272-2.003,5.636-2.441,8.34-1.074c2.79,1.411,4.473,4.5,4.072,7.613C131.333,312.797,128.121,315.679,124.37,315.679z"/>
<path style="fill:#EE6482;" d="M256.001,12c-70.58,0-128,57.42-128,128s57.42,128,128,128s128-57.42,128-128S326.58,12,256.001,12z"
	/>
<path style="fill:#F1839B;" d="M256.001,36c-57.346,0-104,46.654-104,104s46.654,104,104,104s104-46.654,104-104
	S313.346,36,256.001,36z"/>
<g>
	<path style="fill:#FFFFFF;" d="M208.001,195.5c-6.558,0-9.924-8.183-5.303-12.803l96-96c2.929-2.929,7.678-2.929,10.606,0
		c2.929,2.929,2.929,7.678,0,10.606l-96,96C211.839,194.767,209.92,195.5,208.001,195.5z"/>
	<path style="fill:#FFFFFF;" d="M296.001,195.5c-12.958,0-23.5-10.542-23.5-23.5s10.542-23.5,23.5-23.5s23.5,10.542,23.5,23.5
		S308.959,195.5,296.001,195.5z M296.001,163.5c-4.687,0-8.5,3.813-8.5,8.5s3.813,8.5,8.5,8.5s8.5-3.813,8.5-8.5
		S300.688,163.5,296.001,163.5z"/>
	<path style="fill:#FFFFFF;" d="M216.001,131.5c-12.958,0-23.5-10.542-23.5-23.5s10.542-23.5,23.5-23.5s23.5,10.542,23.5,23.5
		S228.959,131.5,216.001,131.5z M216.001,99.5c-4.687,0-8.5,3.813-8.5,8.5s3.813,8.5,8.5,8.5s8.5-3.813,8.5-8.5
		S220.688,99.5,216.001,99.5z"/>
</g>
<g>
</g>
<g>
</g>
<g>
</g>
<g>
</g>
<g>
</g>
<g>
</g>
<g>
</g>
<g>
</g>
<g>
</g>
<g>
</g>
<g>
</g>
<g>
</g>
<g>
</g>
<g>
</g>
<g>
</g>
</svg>
