<?xml version="1.0" encoding="iso-8859-1"?>
<!-- Generator: Adobe Illustrator 19.0.0, SVG Export Plug-In . SVG Version: 6.00 Build 0)  -->
<svg version="1.1" id="Capa_1" xmlns="http://www.w3.org/2000/svg" xmlns:xlink="http://www.w3.org/1999/xlink" x="0px" y="0px"
	 viewBox="0 0 496 496" style="enable-background:new 0 0 496 496;" xml:space="preserve">
<g>
	<path style="fill:#FFA64D;" d="M271.885,416l-12.856-46.024C245.317,373.8,230.933,376,216.005,376c-88.368,0-160-71.632-160-160
		s71.632-160,160-160s160,71.632,160,160c0,12.872-1.68,25.32-4.552,37.304L416.005,264l2.24,0.56
		c3.728-15.584,5.76-31.832,5.76-48.56c0-114.872-93.128-208-208-208s-208,93.128-208,208s93.128,208,208,208
		c19.392,0,38.144-2.712,55.96-7.68L271.885,416z"/>
	<path style="fill:#FFA64D;" d="M471.189,312h-14.208c-6.872,0-13.048,4.216-15.6,10.656c-14.488,36.544-38.768,68.008-69.8,91.064
		l-13.704,9.36c-5.376,3.36-10.912,6.488-16.608,9.36l-3.968,2c-5.704,2.872-9.296,8.744-9.296,15.16v21.424
		c0,12.6,13.144,20.792,24.312,15.16c60.088-30.312,107.064-81.824,132.024-144.768l2.448-6.176
		C491.197,324.112,483.077,312,471.189,312z"/>
	<path style="fill:#FFA64D;" d="M224.005,120c-13.232,0-24-10.768-24-24s10.768-24,24-24s24,10.768,24,24S237.237,120,224.005,120z"
		/>
	<path style="fill:#FFA64D;" d="M144.005,152c-13.232,0-24-10.768-24-24s10.768-24,24-24s24,10.768,24,24S157.237,152,144.005,152z"
		/>
	<path style="fill:#FFA64D;" d="M104.005,256c-13.232,0-24-10.768-24-24s10.768-24,24-24s24,10.768,24,24S117.237,256,104.005,256z"
		/>
	<path style="fill:#FFA64D;" d="M200.005,320c-13.232,0-24-10.768-24-24s10.768-24,24-24s24,10.768,24,24S213.237,320,200.005,320z"
		/>
	<path style="fill:#FFA64D;" d="M296.005,216c-13.232,0-24-10.768-24-24s10.768-24,24-24s24,10.768,24,24S309.237,216,296.005,216z"
		/>
</g>
<g>
	<path style="fill:#333333;" d="M491.661,314.872c-4.624-6.808-12.28-10.872-20.472-10.872h-14.208
		c-2.248,0-4.416,0.344-6.504,0.912l0.16-0.464l-173.848-60.472c-9.032-3.152-19.264-0.808-26.04,5.968
		c-7.368,7.368-9.424,18.688-5.112,28.176l75.088,165.184l0.12-0.056c-0.528,2.048-0.84,4.176-0.84,6.36v21.424
		c0,8.76,4.432,16.712,11.856,21.288c3.984,2.448,8.448,3.68,12.928,3.68c3.792,0,7.6-0.888,11.128-2.664
		c61.912-31.232,110.16-84.136,135.856-148.96l2.448-6.176C497.293,330.464,496.333,321.744,491.661,314.872z M479.349,332.296
		l-2.448,6.176c-24.256,61.184-69.776,111.112-128.184,140.576c-2.752,1.392-5.84,1.248-8.464-0.36
		c-2.704-1.664-4.248-4.456-4.248-7.664V449.6c0-3.424,1.872-6.496,4.888-8.016l3.976-2c5.872-2.968,11.68-6.232,17.248-9.72
		l-8.488-13.56c-5.16,3.224-10.528,6.248-15.968,9l-3.968,2c-0.736,0.368-1.416,0.816-2.104,1.248l-71.384-157.048
		c-1.568-3.448-0.824-7.56,1.856-10.24c2.464-2.464,6.184-3.32,9.472-2.168l164.144,57.096c-0.656,1.12-1.24,2.288-1.736,3.528
		c-13.864,34.976-37.08,65.264-67.136,87.592l9.536,12.84c32.448-24.104,57.504-56.8,72.472-94.544c1.344-3.4,4.552-5.6,8.16-5.6
		h14.208c2.936,0,5.568,1.408,7.24,3.864C480.141,326.384,480.477,329.456,479.349,332.296z"/>
	<rect x="368.005" y="320" style="fill:#333333;" width="16" height="16"/>
	<rect x="352.005" y="368" style="fill:#333333;" width="16" height="16"/>
	<path style="fill:#333333;" d="M414.085,271.768l7.608,1.624l2.088-7.48c4.952-17.768,8.224-29.504,8.224-49.912
		c0-119.104-96.896-216-216-216s-216,96.896-216,216s96.896,216,216,216c18.768,0,38.296-2.792,58.024-8.296l7.712-2.152
		l-54.768-196.024L414.085,271.768z M234.261,185.664l-14.296,14.752l-37.08-132.672C193.565,65.36,204.621,64,216.005,64
		c38.176,0,73.016,14.256,99.744,37.584l-70.112,72.344l11.496,11.136l70.088-72.328c25.224,27.144,40.784,63.376,40.784,103.264
		c0,9.184-0.856,18.32-2.48,27.288l-132.976-32.856l13.208-13.624L234.261,185.664z M104.789,319.264
		C79.565,292.12,64.005,255.888,64.005,216c0-10.272,1.048-20.296,3-29.992l134.672,33.28L104.789,319.264z M167.493,72.08
		l36.696,131.336L70.973,170.504C85.517,124.256,121.661,87.576,167.493,72.08z M216.005,416c-110.28,0-200-89.72-200-200
		s89.72-200,200-200s200,89.72,200,200c0,15.512-1.968,24.872-5.64,38.368l-29.264-7.232c1.92-10.224,2.904-20.656,2.904-31.136
		c0-92.64-75.36-168-168-168s-168,75.36-168,168s75.36,168,168,168c12.648,0,25.208-1.488,37.432-4.272l8.544,30.584
		C246.317,414.088,230.877,416,216.005,416z M249.133,364.304c-10.824,2.4-21.928,3.696-33.128,3.696
		c-38.176,0-73.016-14.256-99.744-37.584l95.784-98.84L249.133,364.304z"/>
	<rect x="152.005" y="224" style="fill:#333333;" width="16" height="16"/>
	<rect x="104.005" y="264" style="fill:#333333;" width="16" height="16"/>
	<rect x="96.005" y="144" style="fill:#333333;" width="16" height="16"/>
	<rect x="168.005" y="176" style="fill:#333333;" width="16" height="16"/>
	<rect x="216.005" y="144" style="fill:#333333;" width="16" height="16"/>
	<rect x="264.005" y="112" style="fill:#333333;" width="16" height="16"/>
	<rect x="344.005" y="192" style="fill:#333333;" width="16" height="16"/>
	<rect x="152.005" y="320" style="fill:#333333;" width="16" height="16"/>
	<rect x="208.005" y="336" style="fill:#333333;" width="16" height="16"/>
	<rect x="320.005" y="144" style="fill:#333333;" width="16" height="16"/>
</g>
<path style="fill:#FFA64D;" d="M320.005,336c-13.232,0-24-10.768-24-24s10.768-24,24-24s24,10.768,24,24S333.237,336,320.005,336z"
	/>
<g>
</g>
<g>
</g>
<g>
</g>
<g>
</g>
<g>
</g>
<g>
</g>
<g>
</g>
<g>
</g>
<g>
</g>
<g>
</g>
<g>
</g>
<g>
</g>
<g>
</g>
<g>
</g>
<g>
</g>
</svg>
